{
	"asset":{
		"version":"2.0",
		"generator":"Created using the official Cinema 4D glTF Exporter 1.000x284978"
	},
	"scenes":[{
		"nodes":[0,
		4,
		9]
	}],
	"nodes":[{
		"name":"Flames",
		"translation":[-2.438084125518799,
		0.0,
		0.0],
		"rotation":[0.0,
		0.0,
		0.0,
		-1.0],
		"scale":[1.0,
		1.0,
		1.0],
		"children":[1,
		2,
		3]
	},
	{
		"name":"flame blue",
		"translation":[0.316960871219635,
		0.0,
		0.0],
		"rotation":[0.0,
		0.0,
		0.0,
		-1.0],
		"scale":[1.0,
		1.0,
		1.0],
		"mesh":0
	},
	{
		"name":"flame red",
		"translation":[0.13333334028720857,
		0.0,
		0.0],
		"rotation":[0.0,
		0.0,
		0.0,
		-1.0],
		"scale":[1.0,
		1.0,
		1.0],
		"mesh":1
	},
	{
		"name":"flame yellow",
		"translation":[-0.2666666805744171,
		0.0,
		0.0],
		"rotation":[0.0,
		0.0,
		0.0,
		-1.0],
		"scale":[1.0,
		1.0,
		1.0],
		"mesh":2
	},
	{
		"name":"Rocket Body",
		"translation":[2.239616870880127,
		-0.25,
		-2.1067938804626467],
		"rotation":[0.0,
		0.0,
		0.0,
		-1.0],
		"scale":[1.0,
		1.0,
		1.0],
		"children":[5,
		6,
		7,
		8]
	},
	{
		"name":"Rocket Body-BodyMain2",
		"translation":[0.0,
		0.0,
		0.0],
		"rotation":[0.0,
		0.0,
		0.0,
		-1.0],
		"scale":[1.0,
		1.0,
		1.0],
		"mesh":3
	},
	{
		"name":"Rocket Body-BodyMain3",
		"translation":[0.0,
		0.0,
		0.0],
		"rotation":[0.0,
		0.0,
		0.0,
		-1.0],
		"scale":[1.0,
		1.0,
		1.0],
		"mesh":4
	},
	{
		"name":"Rocket Body-Boosters",
		"translation":[0.0,
		0.0,
		0.0],
		"rotation":[0.0,
		0.0,
		0.0,
		-1.0],
		"scale":[1.0,
		1.0,
		1.0],
		"mesh":5
	},
	{
		"name":"Rocket Body-Infections",
		"translation":[0.0,
		0.0,
		0.0],
		"rotation":[0.0,
		0.0,
		0.0,
		-1.0],
		"scale":[1.0,
		1.0,
		1.0],
		"mesh":6
	},
	{
		"name":"Spawnert1",
		"translation":[0.8144473433494568,
		2.480729341506958,
		2.1882989406585695],
		"rotation":[0.0,
		0.0,
		0.0,
		-1.0],
		"scale":[1.0,
		1.0,
		1.0],
		"children":[10,
		11,
		12,
		13,
		14,
		15]
	},
	{
		"name":"Spawnert1",
		"translation":[0.0,
		0.0,
		0.0],
		"rotation":[0.0,
		0.0,
		0.0,
		-1.0],
		"scale":[1.0,
		1.0,
		1.0],
		"mesh":7
	},
	{
		"name":"Spawnert1-BodyMain3",
		"translation":[0.0,
		0.0,
		0.0],
		"rotation":[0.0,
		0.0,
		0.0,
		-1.0],
		"scale":[1.0,
		1.0,
		1.0],
		"mesh":8
	},
	{
		"name":"Spawnert1-BodyMain",
		"translation":[0.0,
		0.0,
		0.0],
		"rotation":[0.0,
		0.0,
		0.0,
		-1.0],
		"scale":[1.0,
		1.0,
		1.0],
		"mesh":9
	},
	{
		"name":"Spawnert1-BodyMain3",
		"translation":[0.0,
		0.0,
		0.0],
		"rotation":[0.0,
		0.0,
		0.0,
		-1.0],
		"scale":[1.0,
		1.0,
		1.0],
		"mesh":10
	},
	{
		"name":"Spawnert1-Infections",
		"translation":[0.0,
		0.0,
		0.0],
		"rotation":[0.0,
		0.0,
		0.0,
		-1.0],
		"scale":[1.0,
		1.0,
		1.0],
		"mesh":11
	},
	{
		"name":"Door",
		"translation":[6.104171276092529,
		2.6398661136627199,
		-2.1882989406585695],
		"rotation":[0.0,
		0.0,
		0.0,
		-1.0],
		"scale":[1.0,
		1.0,
		1.0],
		"mesh":12,
		"children":[16]
	},
	{
		"name":"Body.2",
		"translation":[0.09609196335077286,
		-2.6205952167510988,
		9.982011174057625e-16],
		"rotation":[0.0,
		-0.7071067690849304,
		0.0,
		0.7071067690849304],
		"scale":[1.0,
		1.0,
		1.0],
		"mesh":13
	}],
	"bufferViews":[{
		"buffer":0,
		"byteOffset":0,
		"byteLength":96,
		"target":34963
	},
	{
		"buffer":0,
		"byteOffset":96,
		"byteLength":480,
		"byteStride":20,
		"target":34962
	},
	{
		"buffer":1,
		"byteOffset":0,
		"byteLength":48,
		"target":34963
	},
	{
		"buffer":1,
		"byteOffset":48,
		"byteLength":240,
		"byteStride":20,
		"target":34962
	},
	{
		"buffer":2,
		"byteOffset":0,
		"byteLength":48,
		"target":34963
	},
	{
		"buffer":2,
		"byteOffset":48,
		"byteLength":240,
		"byteStride":20,
		"target":34962
	},
	{
		"buffer":3,
		"byteOffset":0,
		"byteLength":360,
		"target":34963
	},
	{
		"buffer":3,
		"byteOffset":360,
		"byteLength":1100,
		"byteStride":20,
		"target":34962
	},
	{
		"buffer":4,
		"byteOffset":0,
		"byteLength":300,
		"target":34963
	},
	{
		"buffer":4,
		"byteOffset":300,
		"byteLength":880,
		"byteStride":20,
		"target":34962
	},
	{
		"buffer":5,
		"byteOffset":0,
		"byteLength":960,
		"target":34963
	},
	{
		"buffer":5,
		"byteOffset":960,
		"byteLength":3920,
		"byteStride":20,
		"target":34962
	},
	{
		"buffer":6,
		"byteOffset":0,
		"byteLength":27216,
		"target":34963
	},
	{
		"buffer":6,
		"byteOffset":27216,
		"byteLength":68040,
		"byteStride":20,
		"target":34962
	},
	{
		"buffer":7,
		"byteOffset":0,
		"byteLength":60,
		"target":34963
	},
	{
		"buffer":7,
		"byteOffset":60,
		"byteLength":320,
		"byteStride":20,
		"target":34962
	},
	{
		"buffer":8,
		"byteOffset":0,
		"byteLength":12,
		"target":34963
	},
	{
		"buffer":8,
		"byteOffset":12,
		"byteLength":80,
		"byteStride":20,
		"target":34962
	},
	{
		"buffer":9,
		"byteOffset":0,
		"byteLength":144,
		"target":34963
	},
	{
		"buffer":9,
		"byteOffset":144,
		"byteLength":800,
		"byteStride":20,
		"target":34962
	},
	{
		"buffer":10,
		"byteOffset":0,
		"byteLength":72,
		"target":34963
	},
	{
		"buffer":10,
		"byteOffset":72,
		"byteLength":400,
		"byteStride":20,
		"target":34962
	},
	{
		"buffer":11,
		"byteOffset":0,
		"byteLength":108540,
		"target":34963
	},
	{
		"buffer":11,
		"byteOffset":108540,
		"byteLength":264940,
		"byteStride":20,
		"target":34962
	},
	{
		"buffer":12,
		"byteOffset":0,
		"byteLength":144,
		"target":34963
	},
	{
		"buffer":12,
		"byteOffset":144,
		"byteLength":560,
		"byteStride":20,
		"target":34962
	},
	{
		"buffer":13,
		"byteOffset":0,
		"byteLength":72,
		"target":34963
	},
	{
		"buffer":13,
		"byteOffset":72,
		"byteLength":620,
		"byteStride":20,
		"target":34962
	}],
	"meshes":[{
		"name":"flame blue",
		"primitives":[{
			"attributes":{
				"POSITION":1,
				"TEXCOORD_0":2
			},
			"indices":0,
			"material":0
		}]
	},
	{
		"name":"flame red",
		"primitives":[{
			"attributes":{
				"POSITION":4,
				"TEXCOORD_0":5
			},
			"indices":3,
			"material":1
		}]
	},
	{
		"name":"flame yellow",
		"primitives":[{
			"attributes":{
				"POSITION":7,
				"TEXCOORD_0":8
			},
			"indices":6,
			"material":2
		}]
	},
	{
		"name":"Rocket Body-BodyMain2",
		"primitives":[{
			"attributes":{
				"POSITION":10,
				"TEXCOORD_0":11
			},
			"indices":9,
			"material":3
		}]
	},
	{
		"name":"Rocket Body-BodyMain3",
		"primitives":[{
			"attributes":{
				"POSITION":13,
				"TEXCOORD_0":14
			},
			"indices":12,
			"material":4
		}]
	},
	{
		"name":"Rocket Body-Boosters",
		"primitives":[{
			"attributes":{
				"POSITION":16,
				"TEXCOORD_0":17
			},
			"indices":15,
			"material":2
		}]
	},
	{
		"name":"Rocket Body-Infections",
		"primitives":[{
			"attributes":{
				"POSITION":19,
				"TEXCOORD_0":20
			},
			"indices":18,
			"material":5
		}]
	},
	{
		"name":"Spawnert1",
		"primitives":[{
			"attributes":{
				"POSITION":22,
				"TEXCOORD_0":23
			},
			"indices":21
		}]
	},
	{
		"name":"Spawnert1-BodyMain3",
		"primitives":[{
			"attributes":{
				"POSITION":25,
				"TEXCOORD_0":26
			},
			"indices":24,
			"material":4
		}]
	},
	{
		"name":"Spawnert1-BodyMain",
		"primitives":[{
			"attributes":{
				"POSITION":28,
				"TEXCOORD_0":29
			},
			"indices":27,
			"material":6
		}]
	},
	{
		"name":"Spawnert1-BodyMain3",
		"primitives":[{
			"attributes":{
				"POSITION":31,
				"TEXCOORD_0":32
			},
			"indices":30,
			"material":4
		}]
	},
	{
		"name":"Spawnert1-Infections",
		"primitives":[{
			"attributes":{
				"POSITION":34,
				"TEXCOORD_0":35
			},
			"indices":33,
			"material":5
		}]
	},
	{
		"name":"Door",
		"primitives":[{
			"attributes":{
				"POSITION":37,
				"TEXCOORD_0":38
			},
			"indices":36,
			"material":3
		}]
	},
	{
		"name":"Body.2",
		"primitives":[{
			"attributes":{
				"POSITION":40,
				"TEXCOORD_0":41
			},
			"indices":39,
			"material":3
		}]
	}],
	"accessors":[{
		"bufferView":0,
		"count":48,
		"type":"SCALAR",
		"componentType":5123,
		"byteOffset":0,
		"min":[0],
		"max":[23]
	},
	{
		"bufferView":1,
		"count":24,
		"type":"VEC3",
		"componentType":5126,
		"byteOffset":0,
		"min":[-0.27857503294944765,
		-0.6375110745429993,
		-0.6375110745429993],
		"max":[0.645627498626709,
		0.6375110745429993,
		0.6375110745429993]
	},
	{
		"bufferView":1,
		"count":24,
		"type":"VEC2",
		"componentType":5126,
		"byteOffset":12,
		"min":[0.0,
		0.0],
		"max":[1.0,
		1.0]
	},
	{
		"bufferView":2,
		"count":24,
		"type":"SCALAR",
		"componentType":5123,
		"byteOffset":0,
		"min":[0],
		"max":[11]
	},
	{
		"bufferView":3,
		"count":12,
		"type":"VEC3",
		"componentType":5126,
		"byteOffset":0,
		"min":[-0.8399999737739563,
		-0.46669048070907595,
		-0.46669048070907595],
		"max":[0.8399999737739563,
		0.46669048070907595,
		0.46669048070907595]
	},
	{
		"bufferView":3,
		"count":12,
		"type":"VEC2",
		"componentType":5126,
		"byteOffset":12,
		"min":[0.0,
		0.0],
		"max":[1.0,
		1.0]
	},
	{
		"bufferView":4,
		"count":24,
		"type":"SCALAR",
		"componentType":5123,
		"byteOffset":0,
		"min":[0],
		"max":[11]
	},
	{
		"bufferView":5,
		"count":12,
		"type":"VEC3",
		"componentType":5126,
		"byteOffset":0,
		"min":[-1.2000000476837159,
		-0.6600000262260437,
		-0.6600000262260437],
		"max":[1.2000000476837159,
		0.6600000262260437,
		0.6600000262260437]
	},
	{
		"bufferView":5,
		"count":12,
		"type":"VEC2",
		"componentType":5126,
		"byteOffset":12,
		"min":[0.0,
		0.0],
		"max":[1.0,
		1.0]
	},
	{
		"bufferView":6,
		"count":180,
		"type":"SCALAR",
		"componentType":5123,
		"byteOffset":0,
		"min":[0],
		"max":[54]
	},
	{
		"bufferView":7,
		"count":55,
		"type":"VEC3",
		"componentType":5126,
		"byteOffset":0,
		"min":[-3.739616870880127,
		-0.75,
		1.155737280845642],
		"max":[-0.7396168112754822,
		1.25,
		3.0578503608703615]
	},
	{
		"bufferView":7,
		"count":55,
		"type":"VEC2",
		"componentType":5126,
		"byteOffset":12,
		"min":[0.0,
		0.0],
		"max":[1.0,
		1.0]
	},
	{
		"bufferView":8,
		"count":150,
		"type":"SCALAR",
		"componentType":5123,
		"byteOffset":0,
		"min":[0],
		"max":[43]
	},
	{
		"bufferView":9,
		"count":44,
		"type":"VEC3",
		"componentType":5126,
		"byteOffset":0,
		"min":[-0.7410151958465576,
		-0.75,
		1.155737280845642],
		"max":[1.2589848041534424,
		1.25,
		3.0578503608703615]
	},
	{
		"bufferView":9,
		"count":44,
		"type":"VEC2",
		"componentType":5126,
		"byteOffset":12,
		"min":[0.0,
		0.0],
		"max":[1.0,
		1.0]
	},
	{
		"bufferView":10,
		"count":480,
		"type":"SCALAR",
		"componentType":5123,
		"byteOffset":0,
		"min":[0],
		"max":[195]
	},
	{
		"bufferView":11,
		"count":196,
		"type":"VEC3",
		"componentType":5126,
		"byteOffset":0,
		"min":[-3.9898509979248049,
		-1.3713264465332032,
		0.4854673445224762],
		"max":[-1.6896167993545533,
		1.8713264465332032,
		3.7281203269958498]
	},
	{
		"bufferView":11,
		"count":196,
		"type":"VEC2",
		"componentType":5126,
		"byteOffset":12,
		"min":[0.0,
		-0.6436588764190674],
		"max":[1.0,
		1.0]
	},
	{
		"bufferView":12,
		"count":13608,
		"type":"SCALAR",
		"componentType":5123,
		"byteOffset":0,
		"min":[0],
		"max":[3401]
	},
	{
		"bufferView":13,
		"count":3402,
		"type":"VEC3",
		"componentType":5126,
		"byteOffset":0,
		"min":[-4.428768634796143,
		-1.4746170043945313,
		0.46658554673194888],
		"max":[1.303706169128418,
		1.9746170043945313,
		3.747002124786377]
	},
	{
		"bufferView":13,
		"count":3402,
		"type":"VEC2",
		"componentType":5126,
		"byteOffset":12,
		"min":[0.0,
		0.0],
		"max":[1.0,
		1.0]
	},
	{
		"bufferView":14,
		"count":30,
		"type":"SCALAR",
		"componentType":5123,
		"byteOffset":0,
		"min":[0],
		"max":[15]
	},
	{
		"bufferView":15,
		"count":16,
		"type":"VEC3",
		"componentType":5126,
		"byteOffset":0,
		"min":[-8.028777122497559,
		-2.480729341506958,
		-6.18829870223999],
		"max":[-7.278777599334717,
		2.519270658493042,
		1.8117011785507203]
	},
	{
		"bufferView":15,
		"count":16,
		"type":"VEC2",
		"componentType":5126,
		"byteOffset":12,
		"min":[0.0,
		0.0],
		"max":[1.0,
		1.0]
	},
	{
		"bufferView":16,
		"count":6,
		"type":"SCALAR",
		"componentType":5123,
		"byteOffset":0,
		"min":[0],
		"max":[3]
	},
	{
		"bufferView":17,
		"count":4,
		"type":"VEC3",
		"componentType":5126,
		"byteOffset":0,
		"min":[-8.028777122497559,
		-2.480729341506958,
		-6.18829870223999],
		"max":[-8.028777122497559,
		2.519270658493042,
		1.8117011785507203]
	},
	{
		"bufferView":17,
		"count":4,
		"type":"VEC2",
		"componentType":5126,
		"byteOffset":12,
		"min":[0.0,
		0.0],
		"max":[1.0,
		1.0]
	},
	{
		"bufferView":18,
		"count":72,
		"type":"SCALAR",
		"componentType":5123,
		"byteOffset":0,
		"min":[0],
		"max":[39]
	},
	{
		"bufferView":19,
		"count":40,
		"type":"VEC3",
		"componentType":5126,
		"byteOffset":0,
		"min":[-8.249771118164063,
		-2.480729341506958,
		-6.939896583557129],
		"max":[6.620876789093018,
		2.519270658493042,
		2.5632989406585695]
	},
	{
		"bufferView":19,
		"count":40,
		"type":"VEC2",
		"componentType":5126,
		"byteOffset":12,
		"min":[0.0,
		0.0],
		"max":[1.0,
		1.0]
	},
	{
		"bufferView":20,
		"count":36,
		"type":"SCALAR",
		"componentType":5123,
		"byteOffset":0,
		"min":[0],
		"max":[19]
	},
	{
		"bufferView":21,
		"count":20,
		"type":"VEC3",
		"componentType":5126,
		"byteOffset":0,
		"min":[-8.412517547607422,
		2.5442707538604738,
		-7.18829870223999],
		"max":[5.592466354370117,
		3.094270706176758,
		2.8117010593414308]
	},
	{
		"bufferView":21,
		"count":20,
		"type":"VEC2",
		"componentType":5126,
		"byteOffset":12,
		"min":[0.0,
		0.0],
		"max":[1.0,
		1.0]
	},
	{
		"bufferView":22,
		"count":54270,
		"type":"SCALAR",
		"componentType":5123,
		"byteOffset":0,
		"min":[0],
		"max":[13246]
	},
	{
		"bufferView":23,
		"count":13247,
		"type":"VEC3",
		"componentType":5126,
		"byteOffset":0,
		"min":[-8.355931282043457,
		-4.446212291717529,
		-9.621904373168946],
		"max":[6.07208776473999,
		6.524357795715332,
		4.778461933135986]
	},
	{
		"bufferView":23,
		"count":13247,
		"type":"VEC2",
		"componentType":5126,
		"byteOffset":12,
		"min":[0.0,
		0.0],
		"max":[1.0,
		1.0]
	},
	{
		"bufferView":24,
		"count":72,
		"type":"SCALAR",
		"componentType":5123,
		"byteOffset":0,
		"min":[0],
		"max":[27]
	},
	{
		"bufferView":25,
		"count":28,
		"type":"VEC3",
		"componentType":5126,
		"byteOffset":0,
		"min":[-0.5,
		-0.4330126941204071,
		-3.9749529361724855],
		"max":[0.5,
		0.4330126941204071,
		3.9749529361724855]
	},
	{
		"bufferView":25,
		"count":28,
		"type":"VEC2",
		"componentType":5126,
		"byteOffset":12,
		"min":[0.0,
		0.0],
		"max":[1.0,
		1.0]
	},
	{
		"bufferView":26,
		"count":36,
		"type":"SCALAR",
		"componentType":5123,
		"byteOffset":0,
		"min":[0],
		"max":[30]
	},
	{
		"bufferView":27,
		"count":31,
		"type":"VEC3",
		"componentType":5126,
		"byteOffset":0,
		"min":[-4.0,
		-2.5,
		-0.125],
		"max":[4.0,
		2.5,
		0.125]
	},
	{
		"bufferView":27,
		"count":31,
		"type":"VEC2",
		"componentType":5126,
		"byteOffset":12,
		"min":[0.0,
		0.0],
		"max":[1.0,
		1.0]
	}],
	"buffers":[{
		"uri":"data:application/octet-stream;base64,",
		"byteLength":576
	},
	{
		"uri":"data:application/octet-stream;base64,",
		"byteLength":288
	},
	{
		"uri":"data:application/octet-stream;base64,",
		"byteLength":288
	},
	{
		"uri":"data:application/octet-stream;base64,",
		"byteLength":1460
	},
	{
		"uri":"data:application/octet-stream;base64,",
		"byteLength":1180
	},
	{
		"uri":"data:application/octet-stream;base64,",
		"byteLength":4880
	},
	{
		"uri":"data:application/octet-stream;base64,",
		"byteLength":95256
	},
	{
		"uri":"data:application/octet-stream;base64,",
		"byteLength":380
	},
	{
		"uri":"data:application/octet-stream;base64,",
		"byteLength":92
	},
	{
		"uri":"data:application/octet-stream;base64,",
		"byteLength":944
	},
	{
		"uri":"data:application/octet-stream;base64,",
		"byteLength":472
	},
	{
		"uri":"data:application/octet-stream;base64,",
		"byteLength":373480
	},
	{
		"uri":"data:application/octet-stream;base64,",
		"byteLength":704
	},
	{
		"uri":"data:application/octet-stream;base64,",
		"byteLength":692
	}],
	"materials":[{
		"pbrMetallicRoughness":{
			"baseColorFactor":[0.0,
			0.8833333333333329,
			1.0,
			1.0],
			"metallicFactor":1.0,
			"roughnessFactor":1.0
		},
		"emissiveFactor":[0.0,
		0.7833333333333332,
		1.0],
		"alphaMode":"OPAQUE",
		"doubleSided":true,
		"name":"Driller"
	},
	{
		"pbrMetallicRoughness":{
			"baseColorFactor":[0.8,
			0.0,
			0.0,
			1.0],
			"metallicFactor":0.0,
			"roughnessFactor":0.5
		},
		"emissiveFactor":[1.0,
		0.0,
		0.0],
		"alphaMode":"OPAQUE",
		"doubleSided":true,
		"name":"Flame"
	},
	{
		"pbrMetallicRoughness":{
			"baseColorFactor":[1.0,
			0.8333333333333335,
			0.0,
			1.0],
			"metallicFactor":1.0,
			"roughnessFactor":1.0
		},
		"emissiveFactor":[1.0,
		0.6833333333333334,
		0.0],
		"alphaMode":"OPAQUE",
		"doubleSided":true,
		"name":"Boosters"
	},
	{
		"pbrMetallicRoughness":{
			"baseColorFactor":[0.61,
			0.39649999999999999,
			0.0,
			1.0],
			"metallicFactor":1.0,
			"roughnessFactor":1.0
		},
		"emissiveFactor":[0.0,
		0.0,
		0.0],
		"alphaMode":"OPAQUE",
		"doubleSided":true,
		"name":"BodyMain2"
	},
	{
		"pbrMetallicRoughness":{
			"baseColorFactor":[0.86,
			0.8458100000000002,
			0.008600000000000007,
			1.0],
			"metallicFactor":1.0,
			"roughnessFactor":1.0
		},
		"emissiveFactor":[0.0,
		0.0,
		0.0],
		"alphaMode":"OPAQUE",
		"doubleSided":true,
		"name":"BodyMain3"
	},
	{
		"pbrMetallicRoughness":{
			"baseColorFactor":[0.47000000000000005,
			0.0,
			0.0,
			1.0],
			"metallicFactor":1.0,
			"roughnessFactor":1.0
		},
		"emissiveFactor":[0.0,
		0.0,
		0.0],
		"alphaMode":"OPAQUE",
		"doubleSided":true,
		"name":"Infections"
	},
	{
		"pbrMetallicRoughness":{
			"baseColorFactor":[0.74,
			0.6166666666666668,
			0.0,
			1.0],
			"metallicFactor":1.0,
			"roughnessFactor":1.0
		},
		"emissiveFactor":[0.0,
		0.0,
		0.0],
		"alphaMode":"OPAQUE",
		"doubleSided":true,
		"name":"BodyMain"
	}]
}