{
	"asset":{
		"version":"2.0",
		"generator":"Created using the official Cinema 4D glTF Exporter 1.000x284978"
	},
	"scenes":[{
		"nodes":[0,
		1]
	}],
	"meshes":[{
		"name":"Spikes.1",
		"primitives":[{
			"attributes":{
				"POSITION":1,
				"TEXCOORD_0":2
			},
			"indices":0,
			"material":0
		}]
	},
	{
		"name":"EHD_V1-BodyMain",
		"primitives":[{
			"attributes":{
				"POSITION":4,
				"NORMAL":5,
				"TEXCOORD_0":6
			},
			"indices":3,
			"material":1
		}]
	},
	{
		"name":"EHD_V1-Boosters",
		"primitives":[{
			"attributes":{
				"POSITION":8,
				"NORMAL":9,
				"TEXCOORD_0":10
			},
			"indices":7,
			"material":2
		}]
	},
	{
		"name":"EHD_V1-BodyMain3",
		"primitives":[{
			"attributes":{
				"POSITION":12,
				"NORMAL":13,
				"TEXCOORD_0":14
			},
			"indices":11,
			"material":3
		}]
	},
	{
		"name":"EHD_V1-Light",
		"primitives":[{
			"attributes":{
				"POSITION":16,
				"NORMAL":17,
				"TEXCOORD_0":18
			},
			"indices":15,
			"material":4
		}]
	},
	{
		"name":"EHD_V1-BodyMain2",
		"primitives":[{
			"attributes":{
				"POSITION":20,
				"NORMAL":21,
				"TEXCOORD_0":22
			},
			"indices":19,
			"material":5
		}]
	},
	{
		"name":"EHD_V1-Camera",
		"primitives":[{
			"attributes":{
				"POSITION":24,
				"NORMAL":25,
				"TEXCOORD_0":26
			},
			"indices":23,
			"material":6
		}]
	},
	{
		"name":"EHD_V1-BodyMain3",
		"primitives":[{
			"attributes":{
				"POSITION":28,
				"NORMAL":29,
				"TEXCOORD_0":30
			},
			"indices":27,
			"material":3
		}]
	},
	{
		"name":"EHD_V1-BodyMain2",
		"primitives":[{
			"attributes":{
				"POSITION":32,
				"NORMAL":33,
				"TEXCOORD_0":34
			},
			"indices":31,
			"material":5
		}]
	},
	{
		"name":"Drill",
		"primitives":[{
			"attributes":{
				"POSITION":36,
				"TEXCOORD_0":37
			},
			"indices":35,
			"material":7
		}]
	}],
	"nodes":[{
		"name":"Spikes.1",
		"translation":[3.052233934402466,
		1.0206968784332276,
		1.7920427910875467e-17],
		"rotation":[0.0,
		0.0,
		0.0,
		-1.0],
		"scale":[1.0,
		1.0,
		1.0],
		"mesh":0
	},
	{
		"name":"EHD_V1",
		"translation":[1.0240880250930787,
		1.6637427806854249,
		1.0195268392562867],
		"rotation":[0.0,
		-0.7071067690849304,
		0.0,
		0.7071067690849304],
		"scale":[1.0,
		1.0,
		1.0],
		"children":[2,
		3,
		4,
		5,
		6,
		7,
		8,
		9,
		10]
	},
	{
		"name":"EHD_V1-BodyMain",
		"translation":[0.0,
		0.0,
		0.0],
		"rotation":[0.0,
		0.0,
		0.0,
		-1.0],
		"scale":[1.0,
		1.0,
		1.0],
		"mesh":1
	},
	{
		"name":"EHD_V1-Boosters",
		"translation":[0.0,
		0.0,
		0.0],
		"rotation":[0.0,
		0.0,
		0.0,
		-1.0],
		"scale":[1.0,
		1.0,
		1.0],
		"mesh":2
	},
	{
		"name":"EHD_V1-BodyMain3",
		"translation":[0.0,
		0.0,
		0.0],
		"rotation":[0.0,
		0.0,
		0.0,
		-1.0],
		"scale":[1.0,
		1.0,
		1.0],
		"mesh":3
	},
	{
		"name":"EHD_V1-Light",
		"translation":[0.0,
		0.0,
		0.0],
		"rotation":[0.0,
		0.0,
		0.0,
		-1.0],
		"scale":[1.0,
		1.0,
		1.0],
		"mesh":4
	},
	{
		"name":"EHD_V1-BodyMain2",
		"translation":[0.0,
		0.0,
		0.0],
		"rotation":[0.0,
		0.0,
		0.0,
		-1.0],
		"scale":[1.0,
		1.0,
		1.0],
		"mesh":5
	},
	{
		"name":"EHD_V1-Camera",
		"translation":[0.0,
		0.0,
		0.0],
		"rotation":[0.0,
		0.0,
		0.0,
		-1.0],
		"scale":[1.0,
		1.0,
		1.0],
		"mesh":6
	},
	{
		"name":"EHD_V1-BodyMain3",
		"translation":[0.0,
		0.0,
		0.0],
		"rotation":[0.0,
		0.0,
		0.0,
		-1.0],
		"scale":[1.0,
		1.0,
		1.0],
		"mesh":7
	},
	{
		"name":"EHD_V1-BodyMain2",
		"translation":[0.0,
		0.0,
		0.0],
		"rotation":[0.0,
		0.0,
		0.0,
		-1.0],
		"scale":[1.0,
		1.0,
		1.0],
		"mesh":8
	},
	{
		"name":"DrillHead",
		"translation":[-0.22408805787563325,
		-1.6637427806854249,
		-1.0195268392562867],
		"rotation":[0.0,
		0.0,
		0.0,
		-1.0],
		"scale":[1.0,
		1.0,
		1.0],
		"children":[11]
	},
	{
		"name":"Drill",
		"translation":[4.552071571350098,
		1.1583333015441895,
		0.8983508944511414],
		"rotation":[0.0,
		-0.258819043636322,
		0.0,
		-0.9659258127212524],
		"scale":[1.0,
		1.0,
		1.0],
		"mesh":9
	}],
	"accessors":[{
		"bufferView":0,
		"type":"SCALAR",
		"min":[0],
		"componentType":5123,
		"count":24600,
		"byteOffset":0,
		"max":[6004]
	},
	{
		"bufferView":1,
		"type":"VEC3",
		"min":[-4.8352179527282719,
		-1.119292140007019,
		-3.6547951698303224],
		"componentType":5126,
		"count":6005,
		"byteOffset":0,
		"max":[0.5720348954200745,
		3.36273455619812,
		5.608605861663818]
	},
	{
		"bufferView":1,
		"type":"VEC2",
		"min":[0.0,
		0.0],
		"componentType":5126,
		"count":6005,
		"byteOffset":12,
		"max":[1.0,
		1.0]
	},
	{
		"bufferView":2,
		"type":"SCALAR",
		"min":[0],
		"componentType":5123,
		"count":1542,
		"byteOffset":0,
		"max":[805]
	},
	{
		"bufferView":3,
		"type":"VEC3",
		"min":[-2.7677881717681886,
		-1.6554094552993775,
		-3.4710886478424074],
		"componentType":5126,
		"count":806,
		"byteOffset":0,
		"max":[3.794670820236206,
		0.7848905920982361,
		1.4320350885391236]
	},
	{
		"bufferView":3,
		"type":"VEC3",
		"min":[-1.0,
		-1.0,
		-1.0],
		"componentType":5126,
		"count":806,
		"byteOffset":12,
		"max":[1.0,
		1.0,
		1.0]
	},
	{
		"bufferView":3,
		"type":"VEC2",
		"min":[0.0,
		0.0],
		"componentType":5126,
		"count":806,
		"byteOffset":24,
		"max":[1.0,
		1.0]
	},
	{
		"bufferView":4,
		"type":"SCALAR",
		"min":[0],
		"componentType":5123,
		"count":72,
		"byteOffset":0,
		"max":[47]
	},
	{
		"bufferView":5,
		"type":"VEC3",
		"min":[-3.2747466564178469,
		-0.7641593813896179,
		-3.0008745193481447],
		"componentType":5126,
		"count":48,
		"byteOffset":0,
		"max":[-2.770900249481201,
		-0.24665939807891847,
		0.9618208408355713]
	},
	{
		"bufferView":5,
		"type":"VEC3",
		"min":[-1.0,
		-1.0,
		-1.0],
		"componentType":5126,
		"count":48,
		"byteOffset":12,
		"max":[1.0,
		1.0,
		1.0]
	},
	{
		"bufferView":5,
		"type":"VEC2",
		"min":[0.0,
		0.0],
		"componentType":5126,
		"count":48,
		"byteOffset":24,
		"max":[1.0,
		1.0]
	},
	{
		"bufferView":6,
		"type":"SCALAR",
		"min":[0],
		"componentType":5123,
		"count":144,
		"byteOffset":0,
		"max":[95]
	},
	{
		"bufferView":7,
		"type":"VEC3",
		"min":[2.461488723754883,
		-0.7641593813896179,
		-3.0008745193481447],
		"componentType":5126,
		"count":96,
		"byteOffset":0,
		"max":[3.2747466564178469,
		-0.24665939807891847,
		0.9618208408355713]
	},
	{
		"bufferView":7,
		"type":"VEC3",
		"min":[-1.0,
		-1.0,
		-1.0],
		"componentType":5126,
		"count":96,
		"byteOffset":12,
		"max":[1.0,
		1.0,
		1.0]
	},
	{
		"bufferView":7,
		"type":"VEC2",
		"min":[0.0,
		0.0],
		"componentType":5126,
		"count":96,
		"byteOffset":24,
		"max":[1.0,
		1.0]
	},
	{
		"bufferView":8,
		"type":"SCALAR",
		"min":[0],
		"componentType":5123,
		"count":480,
		"byteOffset":0,
		"max":[118]
	},
	{
		"bufferView":9,
		"type":"VEC3",
		"min":[2.086815357208252,
		0.7192939519882202,
		-1.2101564407348633],
		"componentType":5126,
		"count":119,
		"byteOffset":0,
		"max":[2.5319089889526369,
		1.1005531549453736,
		-0.82889723777771]
	},
	{
		"bufferView":9,
		"type":"VEC3",
		"min":[-1.0,
		-1.0,
		-1.0],
		"componentType":5126,
		"count":119,
		"byteOffset":12,
		"max":[1.0,
		1.0,
		1.0]
	},
	{
		"bufferView":9,
		"type":"VEC2",
		"min":[0.0,
		0.0],
		"componentType":5126,
		"count":119,
		"byteOffset":24,
		"max":[1.0,
		1.0]
	},
	{
		"bufferView":10,
		"type":"SCALAR",
		"min":[0],
		"componentType":5123,
		"count":216,
		"byteOffset":0,
		"max":[143]
	},
	{
		"bufferView":11,
		"type":"VEC3",
		"min":[-3.0132758617401125,
		-1.5736337900161744,
		-3.317124605178833],
		"componentType":5126,
		"count":144,
		"byteOffset":0,
		"max":[2.7384119033813478,
		1.1721371412277222,
		1.2780708074569703]
	},
	{
		"bufferView":11,
		"type":"VEC3",
		"min":[-1.0,
		-1.0,
		-1.0],
		"componentType":5126,
		"count":144,
		"byteOffset":12,
		"max":[1.0,
		1.0,
		1.0]
	},
	{
		"bufferView":11,
		"type":"VEC2",
		"min":[0.0,
		0.0],
		"componentType":5126,
		"count":144,
		"byteOffset":24,
		"max":[1.0,
		1.0]
	},
	{
		"bufferView":12,
		"type":"SCALAR",
		"min":[0],
		"componentType":5123,
		"count":960,
		"byteOffset":0,
		"max":[237]
	},
	{
		"bufferView":13,
		"type":"VEC3",
		"min":[2.086815357208252,
		0.827295184135437,
		-1.4370534420013428],
		"componentType":5126,
		"count":238,
		"byteOffset":0,
		"max":[2.5319089889526369,
		0.9925519227981567,
		-0.6041902899742127]
	},
	{
		"bufferView":13,
		"type":"VEC3",
		"min":[-1.0,
		-1.0,
		-1.0],
		"componentType":5126,
		"count":238,
		"byteOffset":12,
		"max":[1.0,
		1.0,
		1.0]
	},
	{
		"bufferView":13,
		"type":"VEC2",
		"min":[0.0,
		0.0],
		"componentType":5126,
		"count":238,
		"byteOffset":24,
		"max":[1.0,
		1.0]
	},
	{
		"bufferView":14,
		"type":"SCALAR",
		"min":[0],
		"componentType":5123,
		"count":120,
		"byteOffset":0,
		"max":[79]
	},
	{
		"bufferView":15,
		"type":"VEC3",
		"min":[-2.4262380599975588,
		-1.3538877964019776,
		-2.7866995334625246],
		"componentType":5126,
		"count":80,
		"byteOffset":0,
		"max":[2.153061866760254,
		0.3337971866130829,
		0.7469579577445984]
	},
	{
		"bufferView":15,
		"type":"VEC3",
		"min":[-1.0,
		-0.999000072479248,
		-0.9999688267707825],
		"componentType":5126,
		"count":80,
		"byteOffset":12,
		"max":[1.0,
		0.9997813105583191,
		0.9999688267707825]
	},
	{
		"bufferView":15,
		"type":"VEC2",
		"min":[0.0,
		0.14406615495681764],
		"componentType":5126,
		"count":80,
		"byteOffset":24,
		"max":[1.0,
		0.8559337854385376]
	},
	{
		"bufferView":16,
		"type":"SCALAR",
		"min":[0],
		"componentType":5123,
		"count":78,
		"byteOffset":0,
		"max":[31]
	},
	{
		"bufferView":17,
		"type":"VEC3",
		"min":[-3.035737991333008,
		0.7848905920982361,
		-2.7710790634155275],
		"componentType":5126,
		"count":32,
		"byteOffset":0,
		"max":[1.152561902999878,
		1.1791279315948487,
		0.7272208333015442]
	},
	{
		"bufferView":17,
		"type":"VEC3",
		"min":[-1.0,
		-1.0,
		-1.0],
		"componentType":5126,
		"count":32,
		"byteOffset":12,
		"max":[1.0,
		0.998468816280365,
		1.0]
	},
	{
		"bufferView":17,
		"type":"VEC2",
		"min":[0.0989999920129776,
		0.1979999840259552],
		"componentType":5126,
		"count":32,
		"byteOffset":24,
		"max":[0.9010000228881836,
		0.8020000457763672]
	},
	{
		"bufferView":18,
		"type":"SCALAR",
		"min":[0],
		"componentType":5123,
		"count":864,
		"byteOffset":0,
		"max":[186]
	},
	{
		"bufferView":19,
		"type":"VEC3",
		"min":[-1.7967197895050049,
		-0.18418863415718079,
		-3.2040886878967287],
		"componentType":5126,
		"count":187,
		"byteOffset":0,
		"max":[1.7967153787612916,
		0.18418863415718079,
		0.18418863415718079]
	},
	{
		"bufferView":19,
		"type":"VEC2",
		"min":[0.0,
		0.0],
		"componentType":5126,
		"count":187,
		"byteOffset":12,
		"max":[1.0,
		1.0]
	}],
	"bufferViews":[{
		"buffer":0,
		"byteLength":49200,
		"byteOffset":0,
		"target":34963
	},
	{
		"buffer":0,
		"byteStride":20,
		"byteLength":120100,
		"byteOffset":49200,
		"target":34962
	},
	{
		"buffer":1,
		"byteLength":3084,
		"byteOffset":0,
		"target":34963
	},
	{
		"buffer":1,
		"byteStride":32,
		"byteLength":25792,
		"byteOffset":3084,
		"target":34962
	},
	{
		"buffer":2,
		"byteLength":144,
		"byteOffset":0,
		"target":34963
	},
	{
		"buffer":2,
		"byteStride":32,
		"byteLength":1536,
		"byteOffset":144,
		"target":34962
	},
	{
		"buffer":3,
		"byteLength":288,
		"byteOffset":0,
		"target":34963
	},
	{
		"buffer":3,
		"byteStride":32,
		"byteLength":3072,
		"byteOffset":288,
		"target":34962
	},
	{
		"buffer":4,
		"byteLength":960,
		"byteOffset":0,
		"target":34963
	},
	{
		"buffer":4,
		"byteStride":32,
		"byteLength":3808,
		"byteOffset":960,
		"target":34962
	},
	{
		"buffer":5,
		"byteLength":432,
		"byteOffset":0,
		"target":34963
	},
	{
		"buffer":5,
		"byteStride":32,
		"byteLength":4608,
		"byteOffset":432,
		"target":34962
	},
	{
		"buffer":6,
		"byteLength":1920,
		"byteOffset":0,
		"target":34963
	},
	{
		"buffer":6,
		"byteStride":32,
		"byteLength":7616,
		"byteOffset":1920,
		"target":34962
	},
	{
		"buffer":7,
		"byteLength":240,
		"byteOffset":0,
		"target":34963
	},
	{
		"buffer":7,
		"byteStride":32,
		"byteLength":2560,
		"byteOffset":240,
		"target":34962
	},
	{
		"buffer":8,
		"byteLength":156,
		"byteOffset":0,
		"target":34963
	},
	{
		"buffer":8,
		"byteStride":32,
		"byteLength":1024,
		"byteOffset":156,
		"target":34962
	},
	{
		"buffer":9,
		"byteLength":1728,
		"byteOffset":0,
		"target":34963
	},
	{
		"buffer":9,
		"byteStride":20,
		"byteLength":3740,
		"byteOffset":1728,
		"target":34962
	}],
	"buffers":[{
		"uri":"data:application/octet-stream;base64,",
		"byteLength":169300
	},
	{
		"uri":"data:application/octet-stream;base64,",
		"byteLength":28876
	},
	{
		"uri":"data:application/octet-stream;base64,",
		"byteLength":1680
	},
	{
		"uri":"data:application/octet-stream;base64,",
		"byteLength":3360
	},
	{
		"uri":"data:application/octet-stream;base64,",
		"byteLength":4768
	},
	{
		"uri":"data:application/octet-stream;base64,",
		"byteLength":5040
	},
	{
		"uri":"data:application/octet-stream;base64,",
		"byteLength":9536
	},
	{
		"uri":"data:application/octet-stream;base64,",
		"byteLength":2800
	},
	{
		"uri":"data:application/octet-stream;base64,",
		"byteLength":1180
	},
	{
		"uri":"data:application/octet-stream;base64,",
		"byteLength":5468
	}],
	"materials":[{
		"pbrMetallicRoughness":{
			"baseColorFactor":[0.47000000000000005,
			0.0,
			0.0,
			1.0],
			"metallicFactor":1.0,
			"roughnessFactor":1.0
		},
		"emissiveFactor":[0.0,
		0.0,
		0.0],
		"alphaMode":"OPAQUE",
		"doubleSided":true,
		"name":"Infections"
	},
	{
		"pbrMetallicRoughness":{
			"baseColorFactor":[0.74,
			0.6166666666666668,
			0.0,
			1.0],
			"metallicFactor":1.0,
			"roughnessFactor":1.0
		},
		"emissiveFactor":[0.0,
		0.0,
		0.0],
		"alphaMode":"OPAQUE",
		"doubleSided":true,
		"name":"BodyMain"
	},
	{
		"pbrMetallicRoughness":{
			"baseColorFactor":[1.0,
			0.8333333333333335,
			0.0,
			1.0],
			"metallicFactor":1.0,
			"roughnessFactor":1.0
		},
		"emissiveFactor":[1.0,
		0.6833333333333334,
		0.0],
		"alphaMode":"OPAQUE",
		"doubleSided":true,
		"name":"Boosters"
	},
	{
		"pbrMetallicRoughness":{
			"baseColorFactor":[0.86,
			0.8458100000000002,
			0.008600000000000007,
			1.0],
			"metallicFactor":1.0,
			"roughnessFactor":1.0
		},
		"emissiveFactor":[0.0,
		0.0,
		0.0],
		"alphaMode":"OPAQUE",
		"doubleSided":true,
		"name":"BodyMain3"
	},
	{
		"pbrMetallicRoughness":{
			"baseColorFactor":[1.0,
			1.0,
			1.0,
			1.0],
			"metallicFactor":1.0,
			"roughnessFactor":1.0
		},
		"emissiveFactor":[1.0,
		1.0,
		1.0],
		"alphaMode":"OPAQUE",
		"doubleSided":true,
		"name":"Light"
	},
	{
		"pbrMetallicRoughness":{
			"baseColorFactor":[0.61,
			0.39649999999999999,
			0.0,
			1.0],
			"metallicFactor":1.0,
			"roughnessFactor":1.0
		},
		"emissiveFactor":[0.0,
		0.0,
		0.0],
		"alphaMode":"OPAQUE",
		"doubleSided":true,
		"name":"BodyMain2"
	},
	{
		"pbrMetallicRoughness":{
			"baseColorFactor":[0.58,
			0.0,
			0.0,
			1.0],
			"metallicFactor":1.0,
			"roughnessFactor":1.0
		},
		"emissiveFactor":[0.0,
		0.0,
		0.0],
		"alphaMode":"OPAQUE",
		"doubleSided":true,
		"name":"Camera"
	},
	{
		"pbrMetallicRoughness":{
			"baseColorFactor":[0.0,
			0.8833333333333329,
			1.0,
			1.0],
			"metallicFactor":1.0,
			"roughnessFactor":1.0
		},
		"emissiveFactor":[0.0,
		0.7833333333333332,
		1.0],
		"alphaMode":"OPAQUE",
		"doubleSided":true,
		"name":"Driller"
	}]
}